<svg width="27" height="27" viewBox="0 0 27 27" fill="none" xmlns="http://www.w3.org/2000/svg">
<path d="M21.9375 3.375V23.625H5.0625V3.375H21.9375ZM21.9375 1.6875H5.0625C4.61495 1.6875 4.18572 1.86529 3.86926 2.18176C3.55279 2.49822 3.375 2.92745 3.375 3.375V23.625C3.375 24.0726 3.55279 24.5018 3.86926 24.8182C4.18572 25.1347 4.61495 25.3125 5.0625 25.3125H21.9375C22.3851 25.3125 22.8143 25.1347 23.1307 24.8182C23.4472 24.5018 23.625 24.0726 23.625 23.625V3.375C23.625 2.92745 23.4472 2.49822 23.1307 2.18176C22.8143 1.86529 22.3851 1.6875 21.9375 1.6875Z" fill="white"/>
<path d="M7.59375 19.4062H9.28125V21.0938H7.59375V19.4062Z" fill="white"/>
<path d="M17.7188 19.4062H19.4062V21.0938H17.7188V19.4062Z" fill="white"/>
<path d="M7.59375 15.1875H9.28125V16.875H7.59375V15.1875Z" fill="white"/>
<path d="M17.7188 15.1875H19.4062V16.875H17.7188V15.1875Z" fill="white"/>
<path d="M7.59375 10.9688H9.28125V12.6562H7.59375V10.9688Z" fill="white"/>
<path d="M12.6562 19.4062H14.3438V21.0938H12.6562V19.4062Z" fill="white"/>
<path d="M12.6562 15.1875H14.3438V16.875H12.6562V15.1875Z" fill="white"/>
<path d="M12.6562 10.9688H14.3438V12.6562H12.6562V10.9688Z" fill="white"/>
<path d="M17.7188 10.9688H19.4062V12.6562H17.7188V10.9688Z" fill="white"/>
<path d="M7.59375 5.90625H19.4062V8.4375H7.59375V5.90625Z" fill="white"/>
</svg>
