<svg width="32" height="32" viewBox="0 0 32 32" fill="none" xmlns="http://www.w3.org/2000/svg">
<path d="M5.26403 17.7573C5.14466 18.0832 4.90293 18.3497 4.59019 18.5002C4.27745 18.6507 3.91836 18.6733 3.58921 18.5632C3.26006 18.4532 2.9868 18.2191 2.82749 17.9108C2.66817 17.6024 2.63537 17.2441 2.73603 16.912C2.70937 16.992 2.73603 16.9093 2.73603 16.9093C2.78358 16.7625 2.83877 16.6183 2.90137 16.4773C3.00803 16.224 3.16537 15.8747 3.38137 15.4613C3.8187 14.6347 4.5067 13.5333 5.5147 12.432C7.56003 10.2053 10.9014 8 16 8C21.1014 8 24.4427 10.2053 26.4827 12.432C27.5718 13.6264 28.455 14.9935 29.096 16.4773C29.1494 16.6027 29.1894 16.704 29.216 16.7787C29.2267 16.8 29.2534 16.9387 29.28 17.072C29.304 17.1947 29.3254 17.312 29.3334 17.3333C29.3334 17.3333 29.5574 18.2213 28.4214 18.5973C28.0868 18.709 27.7216 18.6837 27.4058 18.5267C27.0899 18.3698 26.8491 18.0941 26.736 17.76V17.752L26.7174 17.7093C26.5834 17.3668 26.4303 17.032 26.2587 16.7067C25.7854 15.8122 25.2002 14.9815 24.5174 14.2347C22.8907 12.4613 20.232 10.6667 16 10.6667C11.768 10.6667 9.10937 12.4613 7.4827 14.2347C6.60201 15.2002 5.88581 16.3037 5.3627 17.5013C5.33471 17.5701 5.30804 17.6395 5.2827 17.7093L5.26403 17.7573Z" fill="white"/>
<path d="M10.6667 18.6666C10.6667 17.2521 11.2287 15.8955 12.2288 14.8953C13.229 13.8952 14.5856 13.3333 16.0001 13.3333C17.4146 13.3333 18.7711 13.8952 19.7713 14.8953C20.7715 15.8955 21.3334 17.2521 21.3334 18.6666C21.3334 20.0811 20.7715 21.4376 19.7713 22.4378C18.7711 23.438 17.4146 23.9999 16.0001 23.9999C14.5856 23.9999 13.229 23.438 12.2288 22.4378C11.2287 21.4376 10.6667 20.0811 10.6667 18.6666Z" fill="white"/>
</svg>
