<svg width="1598" height="1634" viewBox="0 0 1598 1634" fill="none" xmlns="http://www.w3.org/2000/svg">
<g id="Illustration 1">
<g id="Background">
<g id="Background Object / Tree / 3">
<g id="Group 12">
<path id="Fill 1" fill-rule="evenodd" clip-rule="evenodd" d="M546.711 697.689C546.711 797.397 465.729 878.225 365.832 878.225C265.935 878.225 184.953 797.397 184.953 697.689C184.953 597.98 265.935 517.152 365.832 517.152C465.729 517.152 546.711 597.98 546.711 697.689Z" fill="white"/>
<path id="Stroke 4" d="M365.832 645.512V1014.78" stroke="#23356B" stroke-width="8"/>
<path id="Stroke 6" d="M365.832 816.728L406.098 776.539" stroke="#23356B" stroke-width="8"/>
<path id="Stroke 8" d="M367.352 696.093L388.085 675.4" stroke="#23356B" stroke-width="8"/>
<path id="Stroke 10" d="M365.832 756.769L327.242 718.253" stroke="#23356B" stroke-width="8"/>
</g>
</g>
<g id="Background Object / Tree / 4">
<g id="Group 12_2">
<path id="Fill 1_2" fill-rule="evenodd" clip-rule="evenodd" d="M1274.81 822.273C1274.81 908.238 1218.57 946.817 1149.47 946.817C1080.38 946.817 1024.14 908.238 1024.14 822.273C1024.14 662.141 1092.54 512.6 1149.47 512.6C1206.41 512.6 1274.81 662.141 1274.81 822.273Z" fill="white"/>
<path id="Stroke 4_2" d="M1149.47 683.094V1018.17" stroke="#23356B" stroke-width="8" stroke-linecap="square"/>
<path id="Stroke 6_2" d="M1151.75 890.4L1198.3 843.941" stroke="#23356B" stroke-width="8" stroke-linecap="square"/>
<path id="Stroke 8_2" d="M1150.99 740.931L1179.92 712.062" stroke="#23356B" stroke-width="8" stroke-linecap="square"/>
<path id="Stroke 10_2" d="M1147.95 822.556L1105.04 779.725" stroke="#23356B" stroke-width="8" stroke-linecap="square"/>
</g>
</g>
<g id="Background Object / Tree / 5">
<g id="Group 12_3">
<path id="Fill 1_3" fill-rule="evenodd" clip-rule="evenodd" d="M985.417 791.553C985.417 878.538 928.599 927.066 854.596 927.066C780.592 927.066 723.774 878.538 723.774 791.553C723.774 608.407 807.272 397.269 854.596 397.269C901.919 397.269 985.417 608.407 985.417 791.553Z" fill="#23356B"/>
<path id="Stroke 4_3" d="M854.596 662.168V1063.66" stroke="white" stroke-width="8" stroke-linecap="square"/>
<path id="Stroke 6_3" d="M856.159 874.855L902.461 828.594" stroke="white" stroke-width="8" stroke-linecap="square"/>
<path id="Stroke 8_3" d="M850.72 786.713L812.831 748.858" stroke="white" stroke-width="8" stroke-linecap="square"/>
<path id="Stroke 10_3" d="M856.876 727.413L885.8 698.514" stroke="white" stroke-width="8" stroke-linecap="square"/>
</g>
</g>
<g id="Background Object / Sofa / 4">
<g id="Group 17">
<path id="Fill 1_4" fill-rule="evenodd" clip-rule="evenodd" d="M811.771 1107.3L847.58 1274.1H871.268L835.459 1107.3H811.771Z" fill="#23356B"/>
<path id="Fill 2" fill-rule="evenodd" clip-rule="evenodd" d="M236.087 1107.29H849.236V1081.49H236.087V1107.29Z" fill="#23356B"/>
<path id="Fill 3" fill-rule="evenodd" clip-rule="evenodd" d="M719.225 1200.74H838.769V1174.94H719.225V1200.74Z" fill="#23356B"/>
<path id="Fill 4" fill-rule="evenodd" clip-rule="evenodd" d="M362.775 937.481L335.903 1081.49H368.332L395.204 937.481H362.775Z" fill="#23356B"/>
<path id="Fill 5" fill-rule="evenodd" clip-rule="evenodd" d="M830.168 937.481L803.296 1081.49H835.723L862.596 937.481H830.168Z" fill="#23356B"/>
<path id="Fill 6" fill-rule="evenodd" clip-rule="evenodd" d="M705.452 1107.3H849.236V1081.49H705.452V1107.3Z" fill="#23356B"/>
<path id="Fill 7" fill-rule="evenodd" clip-rule="evenodd" d="M894.936 1031.36L890.129 1057.16H857.696L862.512 1031.36H894.936Z" fill="#23356B"/>
<path id="Fill 8" fill-rule="evenodd" clip-rule="evenodd" d="M862.512 1031.36L857.696 1057.16H311.968L316.785 1031.36H862.512Z" fill="#23356B"/>
<path id="Fill 9" fill-rule="evenodd" clip-rule="evenodd" d="M903.692 984.42L898.884 1010.22H866.451L871.267 984.42H903.692Z" fill="#23356B"/>
<path id="Fill 10" fill-rule="evenodd" clip-rule="evenodd" d="M871.268 984.42L866.451 1010.22H320.724L325.54 984.42H871.268Z" fill="#23356B"/>
<path id="Fill 11" fill-rule="evenodd" clip-rule="evenodd" d="M880.022 937.484L875.216 963.284H907.64L912.447 937.484H880.022Z" fill="#23356B"/>
<path id="Fill 12" fill-rule="evenodd" clip-rule="evenodd" d="M334.304 937.484L329.487 963.284H875.216L880.023 937.484H334.304Z" fill="#23356B"/>
<path id="Fill 13" fill-rule="evenodd" clip-rule="evenodd" d="M719.225 1107.3L683.416 1274.1H707.105L742.913 1107.3H719.225Z" fill="#23356B"/>
<path id="Fill 14" fill-rule="evenodd" clip-rule="evenodd" d="M342.684 1107.3L378.493 1274.1H402.181L366.373 1107.3H342.684Z" fill="#23356B"/>
<path id="Fill 15" fill-rule="evenodd" clip-rule="evenodd" d="M250.138 1200.74H369.683V1174.94H250.138V1200.74Z" fill="#23356B"/>
<path id="Fill 16" fill-rule="evenodd" clip-rule="evenodd" d="M250.138 1107.3L214.329 1274.1H238.019L273.826 1107.3H250.138Z" fill="#23356B"/>
</g>
</g>
<g id="Background Object / Streetlight / 1">
<g id="Group 11">
<path id="Fill 1_5" fill-rule="evenodd" clip-rule="evenodd" d="M1239.75 943.782H1256.62V192.929H1239.75V943.782Z" fill="#23356B"/>
<path id="Fill 2_2" fill-rule="evenodd" clip-rule="evenodd" d="M1066.35 212.039L932.79 167.766C927.211 165.917 924.159 159.838 926.009 154.259L932.671 134.162C934.521 128.583 940.599 125.531 946.177 127.381L1079.73 171.653C1085.31 173.502 1088.36 179.581 1086.51 185.16L1079.85 205.257C1078 210.836 1071.92 213.888 1066.35 212.039Z" fill="white"/>
<path id="Fill 4_2" fill-rule="evenodd" clip-rule="evenodd" d="M1215.84 1222.16H1280.53V973.315H1215.84V1222.16Z" fill="#23356B"/>
<path id="Fill 6_2" fill-rule="evenodd" clip-rule="evenodd" d="M1229.55 1019.72H1266.82V934.577H1229.55V1019.72Z" fill="#23356B"/>
<path id="Fill 7_2" fill-rule="evenodd" clip-rule="evenodd" d="M1232.68 210.878H1263.69V174.776H1232.68V210.878Z" fill="#23356B"/>
<path id="Stroke 8_4" d="M1021.07 152.566C1021.07 152.566 1248.18 202.783 1248.18 324.838" stroke="#23356B" stroke-width="15" stroke-linejoin="bevel"/>
<path id="Fill 9_2" fill-rule="evenodd" clip-rule="evenodd" d="M1081.26 198.461L934.846 149.926C921.744 145.583 914.578 131.308 918.92 118.205L920.236 114.237C924.579 101.135 938.854 93.9679 951.957 98.3114L1098.37 146.846C1111.47 151.189 1118.64 165.463 1114.29 178.567L1112.98 182.535C1108.63 195.637 1094.36 202.804 1081.26 198.461Z" fill="#23356B"/>
</g>
</g>
</g>
<g id="Person / Woman / 1">
<g id="Girl / Head / 1">
<g id="Group 23">
<path id="Hair" d="M903.137 590.993C902.161 592.308 901.66 593.707 901.725 595.195C899.821 601.519 898.795 608.211 898.785 615.136C898.783 616.023 898.799 616.907 898.83 617.787L898.723 694.405L1044.11 694.634L1044.22 615.47L1044.17 615.47C1044.17 615.429 1044.17 615.389 1044.17 615.348C1044.23 576.146 1011.74 544.32 971.587 544.261C940.123 544.216 913.298 563.695 903.137 590.993Z" fill="#19141E"/>
<path id="Fill 7_3" fill-rule="evenodd" clip-rule="evenodd" d="M959.821 686.815C959.821 686.815 973.461 687.218 979.274 684.042L960.546 695.801L959.821 686.815Z" fill="#CF3E83"/>
<g id="Face color">
<path id="Face" d="M989.13 638.96C981.332 638.334 933.312 633.341 906.916 603.78L906.786 603.814C906.786 603.814 906.144 668.883 929.422 682.247C936.668 686.403 949.041 687.436 959.82 686.814L962.299 717.445L997.497 702.963C997.497 702.963 994.121 669.168 992.655 656.194C999.733 649.771 1011.78 646.796 1011.8 635.89C1011.81 632.124 1009.61 625.585 1001.46 625.574C990.526 625.564 992.086 638.653 992.086 638.653C991.101 639.037 990.115 639.126 989.13 638.96Z" fill="white"/>
</g>
<path id="Fill 11_2" fill-rule="evenodd" clip-rule="evenodd" d="M930.173 638.632L922.367 657.555L931.423 657.373L930.173 638.632Z" fill="#2437A8"/>
<path id="Fill 13_2" fill-rule="evenodd" clip-rule="evenodd" d="M938.483 639.453C938.678 643.233 940.9 646.178 943.449 646.032C945.997 645.885 947.905 642.702 947.71 638.921C947.516 635.141 945.292 632.195 942.744 632.342C940.197 632.489 938.288 635.673 938.483 639.453Z" fill="#0D0B6D"/>
<path id="Fill 15_2" fill-rule="evenodd" clip-rule="evenodd" d="M914.554 638.849C914.748 642.629 916.971 645.574 919.52 645.428C922.067 645.281 923.976 642.098 923.781 638.317C923.586 634.537 921.363 631.591 918.815 631.739C916.267 631.885 914.359 635.069 914.554 638.849Z" fill="#0D0B6D"/>
<path id="Stroke 17" d="M933.645 666.437C933.645 666.437 939.545 668.341 945.457 661.768" stroke="#1C295E" stroke-width="3"/>
<path id="Fill 19" opacity="0.395159" fill-rule="evenodd" clip-rule="evenodd" d="M959.844 686.815C959.844 686.815 973.483 687.218 979.296 684.043L960.569 695.8L959.844 686.815Z" fill="black"/>
</g>
</g>
<g id="Girl / Legs / 2">
<g id="Group 16">
<g id="Shoes color">
<path id="Shoes" fill-rule="evenodd" clip-rule="evenodd" d="M1153.37 1322.37L1127.52 1296.52L1136.5 1270.36L1190.84 1315.17L1154 1399.49C1154 1399.49 1150.74 1376.37 1150.91 1352.76C1151.03 1336.45 1153.37 1322.37 1153.37 1322.37ZM841.022 1385.12L846.849 1363L873.37 1363.99L852.504 1425.86L769.76 1374.02C794.73 1365.21 841.022 1385.12 841.022 1385.12Z" fill="#0D0B6D"/>
</g>
<g id="Skin color">
<path id="Skin" fill-rule="evenodd" clip-rule="evenodd" d="M1134.04 1303.1L1136.88 1270.34L1168.73 1296.62L1153.37 1322.37L1134.04 1303.1ZM851.271 1345.85L878.421 1350.91L862.893 1394.54L841.022 1385.12L851.271 1345.85Z" fill="#E576C6"/>
</g>
<g id="Pants color">
<path id="Pants" d="M987.83 1196.93C1029.98 1280.82 1102.53 1351.93 1102.53 1351.93L1167.49 1255.6C1167.49 1255.6 1080.95 1179.62 1040.11 1011.83C1046.97 984.263 1051.85 961.555 1053.57 947.002C1059.19 899.344 1030.84 867.255 1023.23 859.598H1019.74L934.278 859.597C932.451 866.393 925.21 904.486 927.715 960.601C920.17 985.673 911.336 1015.94 901.103 1052.27C842.847 1259.06 815.829 1350.26 815.829 1350.26L926.578 1389.76C926.578 1389.76 958.369 1294.57 987.83 1196.93Z" fill="#0D0B6D"/>
</g>
<g id="Overlay">
<path id="Fill 13_3" opacity="0.14688" fill-rule="evenodd" clip-rule="evenodd" d="M815.829 1350.26L926.579 1389.76C926.579 1389.76 959.845 1290.15 989.856 1190.21C1008.6 1127.86 1027.64 1061.84 1040.11 1011.83C1046.97 984.263 1051.85 961.555 1053.57 947.002C1059.19 899.344 1030.84 867.255 1023.23 859.598H960.525C955.311 873.685 944.805 903.898 927.714 960.602C920.17 985.673 911.336 1015.94 901.103 1052.27C842.847 1259.06 815.829 1350.26 815.829 1350.26Z" fill="white"/>
</g>
</g>
</g>
<g id="Girl / Body / 2">
<g id="Group 35">
<path id="Fill 1_6" fill-rule="evenodd" clip-rule="evenodd" d="M886.744 945.507C886.744 945.507 927.704 880.047 929.748 863.811C931.913 846.608 929.969 824.395 929.969 824.395L902.31 807.93L895.312 848.874L865.465 942.55" fill="#E576C6"/>
<path id="Fill 8_2" fill-rule="evenodd" clip-rule="evenodd" d="M1106.39 941.769C1106.39 941.769 1107.69 846.888 1101.66 831.263C1095.64 815.637 1084.72 794.688 1084.72 794.688L1052.37 816.322L1069.72 844.426L1081.68 940.283" fill="#E576C6"/>
<path id="Fill 10_2" fill-rule="evenodd" clip-rule="evenodd" d="M958.886 722.371L954.044 860.672L976.511 860.335L974.57 722.888L975.349 722.318L974.538 722.371C974.538 722.371 987.258 709.186 992.195 704.229C988.946 704.45 985.74 704.693 982.586 704.862C974 705.305 966.68 705.6 960.277 706.085C959.476 707.171 957.694 710.135 957.904 714.882C958.084 718.753 958.369 720.63 958.58 721.537C958.727 722.17 958.843 722.329 958.875 722.36L958.886 722.371Z" fill="#CE3D29"/>
<path id="Stroke 14" d="M1014.13 779.503L1034.68 810.645" stroke="#FF9929" stroke-width="3"/>
<g id="Skin color_2">
<path id="Skin_2" fill-rule="evenodd" clip-rule="evenodd" d="M970.751 726.347C989.223 724.613 997.455 709.159 1000.46 703.252C995.982 703.202 991.614 703.548 987.342 703.886C985.357 704.044 983.392 704.2 981.447 704.313C979.413 704.431 977.459 704.539 975.579 704.642C966.078 705.165 958.472 705.583 952.032 706.741C951.519 708.591 947.689 728.502 970.751 726.347ZM898.113 952.84L876.187 943.595C879.554 939.649 882.158 936.651 882.158 936.651C882.158 936.651 894.079 938.15 896.348 943.486C897.537 946.281 898.057 949.48 898.113 952.84ZM861.431 961.895C862.109 960.564 865.529 956.296 869.401 951.639L897.164 962.807C894.9 974.855 889.39 986.033 889.39 986.033C889.39 986.033 895.089 982.558 896.223 985.598C896.727 986.951 897.871 997.76 876.521 998.488C874.256 998.565 868.803 993.955 868.803 993.955C868.803 993.955 872.778 1001.55 866.691 1003.04C866.691 1003.04 856.881 988.338 856.73 985.067C856.58 981.796 859.728 965.24 861.431 961.895ZM1074.19 953.924L1077.17 944.393L1109.86 946.984C1112.1 953.131 1114.71 960.602 1115.68 964.69C1116.44 967.891 1115.53 979.068 1113.73 985.198C1112.7 988.671 1110.44 991.89 1110.44 991.89C1110.44 991.89 1107.72 998.271 1106.67 998.827C1103.68 1000.4 1102.35 997.33 1102.35 997.33C1102.35 997.33 1100.34 1006.54 1098.28 1005.64C1097.02 1005.09 1095.16 1003.36 1095.11 1001.07C1094.82 986.471 1091.96 971.219 1086.94 968.587C1083.72 966.896 1082.55 972.634 1081.46 978.008C1080.85 981.004 1080.27 983.887 1079.36 985.306C1076.91 989.147 1067.25 991.886 1069.69 985.17C1073.03 975.967 1073.11 972.101 1073.23 966.336C1073.24 966.064 1073.25 965.787 1073.25 965.506C1073.39 959.263 1074.19 953.924 1074.19 953.924Z" fill="#E576C6"/>
</g>
<path id="Stroke 6_4" opacity="0.146601" d="M885.031 956.369C885.031 956.369 882.034 967.685 871.754 971.212C868.159 972.445 869.057 987 860.245 985.259" stroke="black" stroke-width="3"/>
<g id="Shirt color">
<path id="Shirt" fill-rule="evenodd" clip-rule="evenodd" d="M993.365 861.196V713.528H945.494V861.196H993.365ZM911.707 958.572L864.379 938.616L860.788 948.174L908.928 967.539L911.707 958.572ZM1058 932.812L1111.39 937.436L1111.23 947.093L1058 942.874V932.812Z" fill="#FCBDA4"/>
</g>
<path id="Coat" fill-rule="evenodd" clip-rule="evenodd" d="M1077.17 944.393L1058 942.874V932.812L1111.39 937.436L1111.39 937.449L1115.65 937.797C1115.65 937.797 1114.3 854.365 1098.29 808.925C1084.29 769.192 1058.73 726.041 1038.77 713.479C1037.58 712.73 1036.39 712.023 1035.21 711.38L1039.14 706.032L995.864 694.039C995.864 694.039 997.193 699.239 992.647 703.775C992.56 703.87 992.463 703.965 992.363 704.062C992.307 704.117 992.251 704.172 992.195 704.228C987.257 709.186 974.537 722.37 974.537 722.37L975.349 722.318L974.569 722.887L976.51 860.335L979.209 1052.36L1089.83 1049.02L1081.38 978.402C1080.8 981.254 1080.23 983.95 1079.36 985.306C1076.91 989.147 1067.25 991.886 1069.69 985.17C1073.03 975.967 1073.11 972.101 1073.23 966.336C1073.24 966.064 1073.24 965.787 1073.25 965.506C1073.39 959.263 1074.19 953.924 1074.19 953.924L1077.17 944.393ZM914.163 959.599L904.28 1052.36H947.335L954.045 860.673L932.653 860.985L954.045 860.672L958.885 722.37L958.876 722.36C958.843 722.328 958.727 722.17 958.579 721.537C958.368 720.63 958.085 718.753 957.904 714.882C957.694 710.135 959.476 707.171 960.277 706.085C960.509 705.779 960.657 705.621 960.657 705.621L959.877 698.258L925.744 715.166L927.527 716.105L933.834 719.453L927.526 716.105C926.662 716.78 925.808 717.508 924.964 718.289C897.287 743.688 893.246 836.423 893.246 836.423L860.876 937.133L914.163 959.599ZM935.753 756.841L925.418 853.902L935.754 756.84L942.599 720.725L934.721 719.924L942.599 720.725L935.753 756.841Z" fill="#CE3D29"/>
<path id="Fill 21" fill-rule="evenodd" clip-rule="evenodd" d="M958.875 722.36L958.58 721.537C958.726 722.17 958.844 722.328 958.875 722.36Z" fill="#CE3D29"/>
<path id="Stroke 24" opacity="0.20459" d="M1039.14 706.029C1039.14 706.029 1024.89 724.297 1008.62 727.543C993.217 730.614 974.537 722.368 974.537 722.368" stroke="black" stroke-width="3"/>
<path id="Stroke 25" opacity="0.20459" d="M925.744 715.171C925.744 715.171 926.996 724.238 932.916 726.51C943.291 730.49 956.81 721.681 956.81 721.681" stroke="black" stroke-width="3"/>
<path id="Stroke 26" opacity="0.201265" d="M914.137 959.79L926.167 787.362" stroke="black" stroke-width="3"/>
<path id="Fill 27" opacity="0.201265" fill-rule="evenodd" clip-rule="evenodd" d="M939.376 795.236C939.486 798.863 942.003 801.73 944.999 801.64C947.996 801.549 950.336 798.536 950.226 794.909C950.117 791.283 947.599 788.416 944.604 788.507C941.607 788.597 939.267 791.61 939.376 795.236Z" fill="black"/>
<path id="Fill 28" opacity="0.201265" fill-rule="evenodd" clip-rule="evenodd" d="M942.079 746.865C942.189 750.492 944.706 753.359 947.701 753.269C950.698 753.178 953.038 750.165 952.929 746.538C952.82 742.912 950.302 740.045 947.306 740.136C944.309 740.226 941.97 743.239 942.079 746.865Z" fill="black"/>
<path id="Fill 29" opacity="0.201265" fill-rule="evenodd" clip-rule="evenodd" d="M936.675 843.608C936.784 847.234 939.301 850.101 942.298 850.011C945.293 849.92 947.634 846.907 947.524 843.281C947.415 839.654 944.898 836.787 941.902 836.878C938.905 836.968 936.565 839.981 936.675 843.608Z" fill="black"/>
<path id="Stroke 32" opacity="0.196568" d="M1014.13 772.915L1034.68 834.421L1043.83 931.244L1058 932.812" stroke="black" stroke-width="3"/>
<path id="Stroke 33" opacity="0.201265" d="M1042.34 915.434L1103.33 920.804" stroke="black" stroke-width="3"/>
<path id="Stroke 34" opacity="0.201265" d="M914.137 945.507L875.283 927.945" stroke="black" stroke-width="3"/>
</g>
</g>
</g>
</g>
</svg>
