<svg width="32" height="32" viewBox="0 0 32 32" fill="none" xmlns="http://www.w3.org/2000/svg">
<path d="M13.3334 24.0001C15.7 23.9996 17.9985 23.2073 19.8627 21.7494L25.7241 27.6107L27.6094 25.7254L21.7481 19.8641C23.2067 17.9996 23.9995 15.7007 24.0001 13.3334C24.0001 7.45208 19.2147 2.66675 13.3334 2.66675C7.45208 2.66675 2.66675 7.45208 2.66675 13.3334C2.66675 19.2147 7.45208 24.0001 13.3334 24.0001ZM13.3334 5.33341C17.7454 5.33341 21.3334 8.92141 21.3334 13.3334C21.3334 17.7454 17.7454 21.3334 13.3334 21.3334C8.92141 21.3334 5.33341 17.7454 5.33341 13.3334C5.33341 8.92141 8.92141 5.33341 13.3334 5.33341Z" fill="#F9F9F9"/>
</svg>
