<svg width="201" height="201" viewBox="0 0 201 201" fill="none" xmlns="http://www.w3.org/2000/svg">
<g clip-path="url(#clip0)">
<path d="M189.031 160.281C190.619 159.044 191.885 157.442 192.722 155.611C193.558 153.78 193.939 151.773 193.834 149.763C193.728 147.753 193.139 145.798 192.115 144.064C191.092 142.33 189.665 140.87 187.956 139.806L187.906 67.031L175.406 75.406V139.781C173.716 140.844 172.306 142.296 171.292 144.016C170.278 145.735 169.69 147.673 169.578 149.666C169.465 151.659 169.831 153.65 170.645 155.472C171.459 157.295 172.697 158.897 174.256 160.144L169.531 166.419C165.329 171.765 163.001 178.344 162.906 185.144V200.418H173.093C175.541 200.418 177.918 199.602 179.849 198.099C181.78 196.595 183.155 194.491 183.756 192.119L187.893 175.419V200.418H200.393V185.294C200.298 178.459 197.952 171.847 193.718 166.481L189.031 160.281Z" fill="white"/>
<path d="M100.406 0.406006L0.405884 50.406L100.406 112.906L200.406 50.406L100.406 0.406006Z" fill="white"/>
<path d="M100.406 125.406L37.9059 83.781V105.156C37.9059 116.531 74.6559 150.406 100.406 150.406C126.156 150.406 162.906 116.531 162.906 105.156V83.781L100.406 125.406Z" fill="white"/>
</g>
<defs>
<clipPath id="clip0">
<rect width="200" height="200" fill="white" transform="translate(0.405884 0.406006)"/>
</clipPath>
</defs>
</svg>
