<svg width="509" height="509" viewBox="0 0 509 509" fill="none" xmlns="http://www.w3.org/2000/svg">
<g clip-path="url(#clip0)">
<path d="M479.183 406.158C483.217 403.016 486.433 398.947 488.557 394.295C490.681 389.644 491.65 384.548 491.382 379.442C491.114 374.336 489.616 369.37 487.017 364.967C484.418 360.563 480.793 356.853 476.452 354.151L476.325 169.303L444.575 190.575V354.088C440.284 356.788 436.701 360.476 434.125 364.844C431.55 369.212 430.057 374.132 429.771 379.194C429.485 384.257 430.415 389.314 432.482 393.944C434.549 398.574 437.694 402.642 441.654 405.808L429.653 421.747C418.979 435.326 413.066 452.038 412.825 469.308V508.107H438.701C444.918 508.106 450.956 506.033 455.861 502.214C460.766 498.396 464.258 493.051 465.784 487.025L476.293 444.607V508.107H508.043V469.689C507.801 452.33 501.842 435.536 491.089 421.906L479.183 406.158Z" fill="#23356B"/>
<path d="M254.075 0.0750732L0.0750732 127.075L254.075 285.825L508.075 127.075L254.075 0.0750732Z" fill="#23356B"/>
<path d="M254.075 317.575L95.3251 211.848V266.14C95.3251 295.033 188.67 381.075 254.075 381.075C319.48 381.075 412.825 295.033 412.825 266.14V211.848L254.075 317.575Z" fill="#23356B"/>
</g>
<defs>
<clipPath id="clip0">
<rect width="508" height="508" fill="white" transform="translate(0.0750732 0.0750732)"/>
</clipPath>
</defs>
</svg>
