<svg width="374" height="374" viewBox="0 0 374 374" fill="none" xmlns="http://www.w3.org/2000/svg">
<path d="M313.553 278.893C306.664 262.573 296.665 247.75 284.115 235.247C271.604 222.709 256.782 212.713 240.47 205.81C240.324 205.737 240.178 205.7 240.032 205.627C262.786 189.191 277.578 162.42 277.578 132.215C277.578 82.1777 237.037 41.6367 187 41.6367C136.962 41.6367 96.4214 82.1777 96.4214 132.215C96.4214 162.42 111.213 189.191 133.968 205.663C133.821 205.737 133.675 205.773 133.529 205.846C117.167 212.749 102.484 222.647 89.8838 235.284C77.3456 247.796 67.3489 262.617 60.4459 278.929C53.6643 294.899 50.0068 312.021 49.6714 329.368C49.6617 329.758 49.7301 330.146 49.8725 330.509C50.015 330.872 50.2287 331.203 50.501 331.482C50.7733 331.761 51.0987 331.983 51.458 332.134C51.8174 332.285 52.2034 332.363 52.5933 332.363H74.5074C76.1144 332.363 77.3927 331.085 77.4293 329.514C78.1597 301.318 89.482 274.912 109.497 254.897C130.206 234.188 157.708 222.793 187 222.793C216.291 222.793 243.794 234.188 264.502 254.897C284.517 274.912 295.839 301.318 296.57 329.514C296.606 331.121 297.885 332.363 299.492 332.363H321.406C321.796 332.363 322.182 332.285 322.541 332.134C322.9 331.983 323.226 331.761 323.498 331.482C323.77 331.203 323.984 330.872 324.127 330.509C324.269 330.146 324.337 329.758 324.328 329.368C323.962 311.91 320.347 294.927 313.553 278.893ZM187 195.035C170.235 195.035 154.457 188.497 142.587 176.627C130.717 164.757 124.179 148.979 124.179 132.215C124.179 115.451 130.717 99.6725 142.587 87.8023C154.457 75.9322 170.235 69.3945 187 69.3945C203.764 69.3945 219.542 75.9322 231.412 87.8023C243.282 99.6725 249.82 115.451 249.82 132.215C249.82 148.979 243.282 164.757 231.412 176.627C219.542 188.497 203.764 195.035 187 195.035Z" fill="#23356B"/>
</svg>
